<mxGraphModel dx="1422" dy="795" grid="1" gridSize="10" guides="1" tooltips="1" connect="1" arrows="1" fold="1" page="1" pageScale="1" pageWidth="850" pageHeight="1100" math="0" shadow="0">
  <root>
    <mxCell id="0" />
    <mxCell id="1" parent="0" />
    <mxCell id="lOdg_drUkc5d3jlDm7zj-2" value="" style="edgeStyle=orthogonalEdgeStyle;rounded=0;orthogonalLoop=1;jettySize=auto;html=1;" edge="1" parent="1" source="auuYeCAxz7LAwCTdT31Y-20" target="lOdg_drUkc5d3jlDm7zj-1">
      <mxGeometry relative="1" as="geometry" />
    </mxCell>
    <mxCell id="auuYeCAxz7LAwCTdT31Y-20" value="Начало&lt;br&gt;&lt;span style=&quot;background-color: rgb(255 , 255 , 255)&quot;&gt;Подключение к серверу&lt;/span&gt;" style="strokeWidth=2;html=1;shape=mxgraph.flowchart.terminator;whiteSpace=wrap;" parent="1" vertex="1">
      <mxGeometry x="80" y="30" width="160" height="80" as="geometry" />
    </mxCell>
    <mxCell id="lOdg_drUkc5d3jlDm7zj-4" value="" style="edgeStyle=orthogonalEdgeStyle;rounded=0;orthogonalLoop=1;jettySize=auto;html=1;" edge="1" parent="1" source="lOdg_drUkc5d3jlDm7zj-1" target="lOdg_drUkc5d3jlDm7zj-3">
      <mxGeometry relative="1" as="geometry" />
    </mxCell>
    <mxCell id="lOdg_drUkc5d3jlDm7zj-1" value="Инцициализация WSA" style="rounded=0;whiteSpace=wrap;html=1;" vertex="1" parent="1">
      <mxGeometry x="80" y="150" width="160" height="80" as="geometry" />
    </mxCell>
    <mxCell id="lOdg_drUkc5d3jlDm7zj-6" value="" style="edgeStyle=orthogonalEdgeStyle;rounded=0;orthogonalLoop=1;jettySize=auto;html=1;" edge="1" parent="1" source="lOdg_drUkc5d3jlDm7zj-3">
      <mxGeometry relative="1" as="geometry">
        <mxPoint x="160" y="380" as="targetPoint" />
      </mxGeometry>
    </mxCell>
    <mxCell id="lOdg_drUkc5d3jlDm7zj-3" value="Получение стуктуры, содержащей IP-адрес сервера" style="rounded=0;whiteSpace=wrap;html=1;" vertex="1" parent="1">
      <mxGeometry x="80" y="270" width="160" height="80" as="geometry" />
    </mxCell>
    <mxCell id="lOdg_drUkc5d3jlDm7zj-9" value="" style="edgeStyle=orthogonalEdgeStyle;rounded=0;orthogonalLoop=1;jettySize=auto;html=1;" edge="1" parent="1" source="lOdg_drUkc5d3jlDm7zj-7" target="lOdg_drUkc5d3jlDm7zj-8">
      <mxGeometry relative="1" as="geometry" />
    </mxCell>
    <mxCell id="lOdg_drUkc5d3jlDm7zj-19" style="edgeStyle=orthogonalEdgeStyle;rounded=0;orthogonalLoop=1;jettySize=auto;html=1;" edge="1" parent="1" source="lOdg_drUkc5d3jlDm7zj-7" target="lOdg_drUkc5d3jlDm7zj-18">
      <mxGeometry relative="1" as="geometry" />
    </mxCell>
    <mxCell id="lOdg_drUkc5d3jlDm7zj-7" value="Успешное подключение&lt;br&gt;&amp;nbsp;к серверу" style="rhombus;whiteSpace=wrap;html=1;" vertex="1" parent="1">
      <mxGeometry x="80" y="380" width="160" height="80" as="geometry" />
    </mxCell>
    <mxCell id="lOdg_drUkc5d3jlDm7zj-11" value="" style="edgeStyle=orthogonalEdgeStyle;rounded=0;orthogonalLoop=1;jettySize=auto;html=1;" edge="1" parent="1" source="lOdg_drUkc5d3jlDm7zj-8" target="lOdg_drUkc5d3jlDm7zj-10">
      <mxGeometry relative="1" as="geometry" />
    </mxCell>
    <mxCell id="lOdg_drUkc5d3jlDm7zj-8" value="Освобождение памяти, занимаемой структурой с IP-адресом сервера" style="rounded=0;whiteSpace=wrap;html=1;" vertex="1" parent="1">
      <mxGeometry x="80" y="490" width="160" height="80" as="geometry" />
    </mxCell>
    <mxCell id="lOdg_drUkc5d3jlDm7zj-15" value="" style="edgeStyle=orthogonalEdgeStyle;rounded=0;orthogonalLoop=1;jettySize=auto;html=1;" edge="1" parent="1" source="lOdg_drUkc5d3jlDm7zj-10" target="lOdg_drUkc5d3jlDm7zj-14">
      <mxGeometry relative="1" as="geometry" />
    </mxCell>
    <mxCell id="lOdg_drUkc5d3jlDm7zj-10" value="Результат = успех" style="rounded=0;whiteSpace=wrap;html=1;" vertex="1" parent="1">
      <mxGeometry x="80" y="600" width="160" height="80" as="geometry" />
    </mxCell>
    <mxCell id="lOdg_drUkc5d3jlDm7zj-17" style="edgeStyle=orthogonalEdgeStyle;rounded=0;orthogonalLoop=1;jettySize=auto;html=1;" edge="1" parent="1" source="lOdg_drUkc5d3jlDm7zj-12">
      <mxGeometry relative="1" as="geometry">
        <mxPoint x="160" y="700" as="targetPoint" />
        <Array as="points">
          <mxPoint x="360" y="700" />
        </Array>
      </mxGeometry>
    </mxCell>
    <mxCell id="lOdg_drUkc5d3jlDm7zj-12" value="Результат = ошибка" style="rounded=0;whiteSpace=wrap;html=1;" vertex="1" parent="1">
      <mxGeometry x="265" y="600" width="160" height="80" as="geometry" />
    </mxCell>
    <mxCell id="lOdg_drUkc5d3jlDm7zj-22" value="" style="edgeStyle=orthogonalEdgeStyle;rounded=0;orthogonalLoop=1;jettySize=auto;html=1;" edge="1" parent="1" source="lOdg_drUkc5d3jlDm7zj-14" target="lOdg_drUkc5d3jlDm7zj-21">
      <mxGeometry relative="1" as="geometry" />
    </mxCell>
    <mxCell id="lOdg_drUkc5d3jlDm7zj-14" value="Возврат результата" style="rounded=0;whiteSpace=wrap;html=1;" vertex="1" parent="1">
      <mxGeometry x="80" y="720" width="160" height="80" as="geometry" />
    </mxCell>
    <mxCell id="lOdg_drUkc5d3jlDm7zj-20" value="" style="edgeStyle=orthogonalEdgeStyle;rounded=0;orthogonalLoop=1;jettySize=auto;html=1;" edge="1" parent="1" source="lOdg_drUkc5d3jlDm7zj-18" target="lOdg_drUkc5d3jlDm7zj-12">
      <mxGeometry relative="1" as="geometry" />
    </mxCell>
    <mxCell id="lOdg_drUkc5d3jlDm7zj-18" value="Очистка WSA" style="rounded=0;whiteSpace=wrap;html=1;" vertex="1" parent="1">
      <mxGeometry x="265" y="490" width="160" height="80" as="geometry" />
    </mxCell>
    <mxCell id="lOdg_drUkc5d3jlDm7zj-21" value="Конец&lt;br&gt;&lt;span style=&quot;background-color: rgb(255 , 255 , 255)&quot;&gt;Подключение к серверу&lt;/span&gt;" style="strokeWidth=2;html=1;shape=mxgraph.flowchart.terminator;whiteSpace=wrap;" vertex="1" parent="1">
      <mxGeometry x="80" y="830" width="160" height="80" as="geometry" />
    </mxCell>
    <mxCell id="lOdg_drUkc5d3jlDm7zj-23" value="Нет" style="text;html=1;align=center;verticalAlign=middle;resizable=0;points=[];autosize=1;" vertex="1" parent="1">
      <mxGeometry x="240" y="400" width="40" height="20" as="geometry" />
    </mxCell>
    <mxCell id="lOdg_drUkc5d3jlDm7zj-24" value="Да" style="text;html=1;align=center;verticalAlign=middle;resizable=0;points=[];autosize=1;" vertex="1" parent="1">
      <mxGeometry x="130" y="460" width="30" height="20" as="geometry" />
    </mxCell>
  </root>
</mxGraphModel>